<svg width="24" height="24" viewBox="0 0 24 24" fill="none" xmlns="http://www.w3.org/2000/svg">
<path fill-rule="evenodd" clip-rule="evenodd" d="M9.92882 1.24988L10 1.25001H14L14.0712 1.24988C14.5142 1.24862 15.222 1.24661 15.791 1.62598C16.3265 1.98295 16.6111 2.56191 16.7096 3.32344C18.1504 3.47472 19.3992 3.88152 20.2993 4.85445C21.3278 5.96621 21.75 7.65472 21.75 10V11C21.75 11.4142 21.4142 11.75 21 11.75C20.5858 11.75 20.25 11.4142 20.25 11V10C20.25 7.77529 19.8372 6.5638 19.1982 5.87307C18.6723 5.30463 17.8895 4.97695 16.7122 4.83334C16.6683 5.15166 16.5743 5.49068 16.374 5.79104C15.9178 6.47535 15.099 6.75001 14 6.75001H10L9.92882 6.75015C9.48584 6.75141 8.77803 6.75342 8.20897 6.37405C7.71018 6.04153 7.42903 5.51636 7.31325 4.83044C6.12269 4.97291 5.33207 5.30282 4.80215 5.87644C4.1626 6.56873 3.75 7.7808 3.75 10V16C3.75 17.9867 4.01132 19.2311 4.68943 20.0061C5.34587 20.7563 6.56467 21.25 9 21.25H11C11.4142 21.25 11.75 21.5858 11.75 22C11.75 22.4142 11.4142 22.75 11 22.75H9C6.43533 22.75 4.65413 22.2437 3.56057 20.9939C2.48868 19.7689 2.25 18.0133 2.25 16V10C2.25 7.65922 2.6724 5.97129 3.70035 4.85858C4.60012 3.88461 5.84867 3.47546 7.29036 3.32356C7.38885 2.56197 7.67349 1.98297 8.20897 1.62598C8.77803 1.24661 9.48584 1.24862 9.92882 1.24988ZM15.25 4.02355C15.2493 4.57162 15.2242 4.81169 15.126 4.95899C15.0822 5.02468 14.901 5.25001 14 5.25001H10C9.43524 5.25001 9.19042 5.22557 9.04103 5.12598C8.97533 5.08218 8.75 4.90097 8.75 4.00001C8.75 3.09906 8.97533 2.91785 9.04103 2.87405C9.19042 2.77446 9.43524 2.75001 10 2.75001H14C14.5648 2.75001 14.8096 2.77446 14.959 2.87405C15.0247 2.91785 15.25 3.09906 15.25 4.00001L15.25 4.02355Z" fill="#5E5CE5"/>
<path d="M9.91021 8.84967C10.2031 9.14257 10.2031 9.61744 9.91021 9.91033L7.66021 12.1603C7.36732 12.4532 6.89245 12.4532 6.59955 12.1603L5.84955 11.4103C5.55666 11.1174 5.55666 10.6426 5.84955 10.3497C6.14245 10.0568 6.61732 10.0568 6.91021 10.3497L7.12988 10.5693L8.84955 8.84967C9.14245 8.55678 9.61732 8.55678 9.91021 8.84967Z" fill="#5E5CE5"/>
<path d="M17.6199 11.63H11.3699C10.9557 11.63 10.6199 11.2942 10.6199 10.88C10.6199 10.4658 10.9557 10.13 11.3699 10.13H17.6199C18.0341 10.13 18.3699 10.4658 18.3699 10.88C18.3699 11.2942 18.0341 11.63 17.6199 11.63Z" fill="#5E5CE5"/>
<path d="M9.91021 14.8497C10.2031 15.1426 10.2031 15.6174 9.91021 15.9103L7.66021 18.1603C7.36732 18.4532 6.89245 18.4532 6.59955 18.1603L5.84955 17.4103C5.55666 17.1174 5.55666 16.6426 5.84955 16.3497C6.14245 16.0568 6.61732 16.0568 6.91021 16.3497L7.12988 16.5693L8.84955 14.8497C9.14245 14.5568 9.61732 14.5568 9.91021 14.8497Z" fill="#5E5CE5"/>
<path d="M10.6199 16.88C10.6199 16.4658 10.9557 16.13 11.3699 16.13H12C12.4142 16.13 12.75 16.4658 12.75 16.88C12.75 17.2942 12.4142 17.63 12 17.63H11.3699C10.9557 17.63 10.6199 17.2942 10.6199 16.88Z" fill="#5E5CE5"/>
<path fill-rule="evenodd" clip-rule="evenodd" d="M19.8308 13.2587C20.5563 13.1866 21.2331 13.5124 21.8503 14.1297C22.4739 14.7532 22.7982 15.4348 22.7264 16.1613C22.6585 16.8485 22.25 17.3907 21.8503 17.7903L21.3631 18.2776C21.3082 18.3596 21.2382 18.4288 21.1581 18.4826L17.7003 21.9403C17.5487 22.092 17.3597 22.2145 17.1883 22.3019C17.0196 22.3879 16.8053 22.472 16.5849 22.5027L15.0016 22.7317C14.5108 22.8076 14.0192 22.6738 13.6689 22.3208C13.32 21.9692 13.1894 21.4792 13.2573 20.9958L13.2577 20.9926L13.4877 19.4026C13.489 19.3937 13.4905 19.3848 13.4921 19.3759C13.5281 19.178 13.6043 18.977 13.6892 18.8071C13.7729 18.6397 13.8932 18.4462 14.0497 18.2897L17.5962 14.7432C17.6052 14.7337 17.6144 14.7244 17.624 14.7154L18.1997 14.1397C18.603 13.7364 19.1452 13.3269 19.8308 13.2587ZM17.8948 16.5659L15.1106 19.3501C15.109 19.3519 15.0996 19.3626 15.0848 19.3845C15.0679 19.4094 15.0491 19.4414 15.0308 19.4779C14.9947 19.5503 14.9758 19.6095 14.9695 19.6366L14.7427 21.2043L14.7426 21.2054C14.7398 21.2254 14.7395 21.2409 14.7401 21.2524C14.7487 21.2522 14.7596 21.2513 14.773 21.2492L14.7826 21.2477L16.3726 21.0177L16.3769 21.0171C16.3769 21.0171 16.3885 21.0149 16.412 21.0067C16.4389 20.9974 16.4717 20.9835 16.5068 20.9656C16.5418 20.9478 16.5737 20.9287 16.5996 20.9108C16.6123 20.902 16.6222 20.8944 16.6295 20.8885C16.6362 20.883 16.6394 20.88 16.6397 20.8797L19.4217 18.0977C19.1133 17.9108 18.8272 17.6868 18.5701 17.4297C18.3097 17.1693 18.0832 16.879 17.8948 16.5659ZM20.5307 16.9887C20.1966 16.8392 19.8913 16.6296 19.6308 16.3691C19.3667 16.105 19.1549 15.795 19.0051 15.4555L19.2603 15.2003C19.5771 14.8836 19.8098 14.7682 19.9792 14.7513C20.1087 14.7385 20.367 14.7676 20.7897 15.1903C21.2162 15.6168 21.2469 15.8802 21.2337 16.0137C21.2166 16.1865 21.1 16.4194 20.7897 16.7297L20.5307 16.9887Z" fill="#5E5CE5"/>
</svg>
