<svg width="25" height="24" viewBox="0 0 25 24" fill="none" xmlns="http://www.w3.org/2000/svg">
<path d="M13.3248 7.80302C12.9233 7.70119 12.5152 7.94413 12.4134 8.34564C12.3116 8.74714 12.5545 9.15517 12.956 9.25699L17.806 10.487C18.2075 10.5888 18.6155 10.3459 18.7174 9.94437C18.8192 9.54287 18.5763 9.13484 18.1748 9.03302L13.3248 7.80302Z" fill="#A1A3AA"/>
<path d="M12.3458 11.6733C11.9445 11.5709 11.5361 11.8132 11.4337 12.2146C11.3313 12.6159 11.5736 13.0243 11.9749 13.1267L14.8749 13.8667C15.2763 13.9691 15.6847 13.7268 15.7871 13.3254C15.8895 12.9241 15.6472 12.5157 15.2458 12.4133L12.3458 11.6733Z" fill="#A1A3AA"/>
<path fill-rule="evenodd" clip-rule="evenodd" d="M8.99527 4.44197C9.63489 3.27194 10.5105 2.4549 11.6916 2.04728C12.9462 1.6143 14.4411 1.68069 16.1716 2.08988L16.1727 2.09013L17.8408 2.4797C20.0081 2.9866 21.6137 3.81535 22.4911 5.22959C23.3685 6.64383 23.3971 8.44905 22.8902 10.6112L21.9104 14.7906C21.4752 16.6605 20.7995 18.111 19.7127 19.0411C18.659 19.9427 17.3279 20.265 15.7536 20.1583C15.1007 20.5631 14.3272 20.8944 13.4442 21.1826L13.443 21.183L11.8648 21.7024L11.8605 21.7038C9.80585 22.3663 8.05266 22.4852 6.60876 21.7464C5.16513 21.0078 4.23461 19.5161 3.56709 17.4618L2.28657 13.5102C1.62432 11.4562 1.50276 9.701 2.23824 8.25604C2.97406 6.81041 4.46344 5.87966 6.51805 5.2169L8.10369 4.69504C8.40146 4.60062 8.69996 4.5129 8.99527 4.44197ZM10.1853 5.40586C10.702 4.34666 11.3535 3.75077 12.181 3.46521C13.0486 3.16577 14.2183 3.16927 15.8274 3.54986L15.8295 3.55034L17.4995 3.94034C19.5221 4.41344 20.6514 5.10967 21.2165 6.0204C21.7815 6.93116 21.9029 8.25094 21.4298 10.2688L20.4496 14.45C20.0447 16.1898 19.4704 17.2741 18.7374 17.9014C18.0297 18.507 17.0613 18.7808 15.6318 18.6433L15.6276 18.643C15.6225 18.6425 15.6174 18.6421 15.6122 18.6418C15.1599 18.6051 14.6617 18.5226 14.116 18.3909L12.4333 17.9903C12.4322 17.99 12.431 17.9897 12.4299 17.9895C10.4186 17.5115 9.29124 16.8158 8.7259 15.9055C8.16077 14.9957 8.03745 13.6778 8.51033 11.6608L9.4902 7.47133C9.68068 6.66192 9.90189 5.98755 10.1639 5.44961C10.1715 5.43527 10.1786 5.42068 10.1853 5.40586ZM8.2715 6.21896L6.98053 6.64383C5.06627 7.26103 4.04145 8.02011 3.57503 8.93647C3.10805 9.85392 3.09645 11.1336 3.71402 13.0493L4.99367 16.9982C5.61616 18.914 6.37564 19.9422 7.292 20.4111C8.20778 20.8796 9.484 20.8937 11.3982 20.2768L11.4002 20.2762L12.9777 19.757C13.0341 19.7386 13.0897 19.7201 13.1445 19.7015L12.0863 19.4496C9.92999 18.9376 8.32845 18.1086 7.45167 16.697C6.57435 15.2844 6.5428 13.4817 7.04983 11.3188L8.02997 7.12821C8.10387 6.81416 8.18393 6.51049 8.2715 6.21896Z" fill="#A1A3AA"/>
</svg>
