<svg width="25" height="25" viewBox="0 0 25 25" fill="none" xmlns="http://www.w3.org/2000/svg">
<path d="M17.9681 10.086C18.2917 9.82751 18.3445 9.35558 18.086 9.03194C17.8275 8.70829 17.3556 8.65548 17.0319 8.91398L13.9029 11.4132C13.1465 12.0151 11.8446 12.0155 11.088 11.4139L7.96898 8.91471C7.64573 8.6557 7.17372 8.70778 6.91471 9.03102C6.6557 9.35427 6.70778 9.82628 7.03102 10.0853L10.151 12.5853L10.1529 12.5868C11.4563 13.6244 13.5337 13.6244 14.8371 12.5868L17.9681 10.086Z" fill="#A1A3AA"/>
<path fill-rule="evenodd" clip-rule="evenodd" d="M7.5 3.25C5.88503 3.25 4.42465 3.65363 3.36466 4.6379C2.29462 5.63152 1.75 7.10705 1.75 9V16C1.75 17.893 2.29462 19.3685 3.36466 20.3621C4.42465 21.3464 5.88503 21.75 7.5 21.75H17.5C19.115 21.75 20.5754 21.3464 21.6353 20.3621C22.7054 19.3685 23.25 17.893 23.25 16V9C23.25 7.10705 22.7054 5.63152 21.6353 4.6379C20.5754 3.65363 19.115 3.25 17.5 3.25H7.5ZM3.25 9C3.25 7.39295 3.70538 6.36848 4.38534 5.7371C5.07535 5.09637 6.11497 4.75 7.5 4.75H17.5C18.885 4.75 19.9246 5.09637 20.6147 5.7371C21.2946 6.36848 21.75 7.39295 21.75 9V16C21.75 17.607 21.2946 18.6315 20.6147 19.2629C19.9246 19.9036 18.885 20.25 17.5 20.25H7.5C6.11497 20.25 5.07535 19.9036 4.38534 19.2629C3.70538 18.6315 3.25 17.607 3.25 16V9Z" fill="#A1A3AA"/>
</svg>
