<svg width="25" height="24" viewBox="0 0 25 24" fill="none" xmlns="http://www.w3.org/2000/svg">
<path fill-rule="evenodd" clip-rule="evenodd" d="M7.64075 1.52021C7.4653 1.46875 7.27575 1.51715 7.14646 1.64644C7.01717 1.77573 6.96876 1.96528 7.02023 2.14073L7.41894 3.5L7.02023 4.85926C6.96876 5.03471 7.01717 5.22426 7.14646 5.35355C7.27575 5.48284 7.4653 5.53125 7.64075 5.47978L9.00001 5.08106L10.3593 5.47978C10.5347 5.53125 10.7243 5.48284 10.8536 5.35355C10.9829 5.22426 11.0313 5.03471 10.9798 4.85926L10.5811 3.5L10.9798 2.14073C11.0313 1.96528 10.9829 1.77573 10.8536 1.64644C10.7243 1.51715 10.5347 1.46875 10.3593 1.52021L9.00001 1.91893L7.64075 1.52021ZM8.4198 3.35926L8.23737 2.73736L8.85928 2.91978C8.95116 2.94674 9.04886 2.94674 9.14075 2.91978L9.76265 2.73736L9.58023 3.35926C9.55327 3.45115 9.55327 3.54885 9.58023 3.64073L9.76265 4.26264L9.14075 4.08021C9.04886 4.05326 8.95116 4.05326 8.85928 4.08021L8.23737 4.26264L8.4198 3.64073C8.44675 3.54885 8.44675 3.45115 8.4198 3.35926Z" fill="#A1A3AA"/>
<path fill-rule="evenodd" clip-rule="evenodd" d="M3.64075 7.52021C3.4653 7.46875 3.27575 7.51715 3.14646 7.64644C3.01717 7.77573 2.96876 7.96528 3.02023 8.14073L3.41895 9.5L3.02023 10.8593C2.96876 11.0347 3.01717 11.2243 3.14646 11.3536C3.27575 11.4828 3.4653 11.5312 3.64075 11.4798L5.00001 11.0811L6.35928 11.4798C6.53473 11.5312 6.72428 11.4828 6.85357 11.3536C6.98286 11.2243 7.03126 11.0347 6.9798 10.8593L6.58108 9.5L6.9798 8.14073C7.03126 7.96528 6.98286 7.77573 6.85357 7.64644C6.72428 7.51715 6.53473 7.46875 6.35928 7.52021L5.00001 7.91893L3.64075 7.52021ZM4.4198 9.35926L4.23737 8.73736L4.85928 8.91978C4.95116 8.94674 5.04886 8.94674 5.14075 8.91978L5.76265 8.73736L5.58023 9.35926C5.55327 9.45115 5.55327 9.54885 5.58023 9.64073L5.76265 10.2626L5.14075 10.0802C5.04886 10.0533 4.95116 10.0533 4.85928 10.0802L4.23737 10.2626L4.4198 9.64073C4.44675 9.54885 4.44675 9.45115 4.4198 9.35926Z" fill="#A1A3AA"/>
<path fill-rule="evenodd" clip-rule="evenodd" d="M18.6407 12.5202C18.4653 12.4687 18.2757 12.5172 18.1465 12.6464C18.0172 12.7757 17.9688 12.9653 18.0202 13.1407L18.4189 14.5L18.0202 15.8593C17.9688 16.0347 18.0172 16.2243 18.1465 16.3535C18.2757 16.4828 18.4653 16.5312 18.6407 16.4798L20 16.0811L21.3593 16.4798C21.5347 16.5312 21.7243 16.4828 21.8536 16.3535C21.9829 16.2243 22.0313 16.0347 21.9798 15.8593L21.5811 14.5L21.9798 13.1407C22.0313 12.9653 21.9829 12.7757 21.8536 12.6464C21.7243 12.5172 21.5347 12.4687 21.3593 12.5202L20 12.9189L18.6407 12.5202ZM19.4198 14.3593L19.2374 13.7374L19.8593 13.9198C19.9512 13.9467 20.0489 13.9467 20.1407 13.9198L20.7627 13.7374L20.5802 14.3593C20.5533 14.4511 20.5533 14.5488 20.5802 14.6407L20.7627 15.2626L20.1407 15.0802C20.0489 15.0533 19.9512 15.0533 19.8593 15.0802L19.2374 15.2626L19.4198 14.6407C19.4468 14.5488 19.4468 14.4511 19.4198 14.3593Z" fill="#A1A3AA"/>
<path fill-rule="evenodd" clip-rule="evenodd" d="M20.5298 3.96967C19.4069 2.84678 17.592 2.84678 16.4691 3.96967L3.46912 16.9697C2.34623 18.0926 2.34623 19.9074 3.46912 21.0303C4.59202 22.1532 6.40689 22.1532 7.52978 21.0303L20.5298 8.03033C21.6527 6.90744 21.6527 5.09257 20.5298 3.96967ZM4.52978 18.0303L15.5095 7.05066L17.4488 8.99L6.46912 19.9697C5.93202 20.5068 5.06689 20.5068 4.52978 19.9697C3.99268 19.4326 3.99268 18.5674 4.52978 18.0303ZM16.5701 5.99L18.5095 7.92934L19.4691 6.96967C20.0062 6.43257 20.0062 5.56744 19.4691 5.03033C18.932 4.49323 18.0669 4.49323 17.5298 5.03033L16.5701 5.99Z" fill="#A1A3AA"/>
</svg>
