<svg width="25" height="24" viewBox="0 0 25 24" fill="none" xmlns="http://www.w3.org/2000/svg">
<path fill-rule="evenodd" clip-rule="evenodd" d="M9.99981 1.25C10.414 1.25 10.7498 1.58579 10.7498 2V4.25H14.2498V2C14.2498 1.58579 14.5856 1.25 14.9998 1.25C15.414 1.25 15.7498 1.58579 15.7498 2V4.25H16.0898C17.554 4.25 18.7498 5.44579 18.7498 6.91V12C18.7498 13.27 18.3156 14.4615 17.4815 15.3411C16.6417 16.2267 15.4395 16.75 13.9998 16.75H13.2498V22C13.2498 22.4142 12.914 22.75 12.4998 22.75C12.0856 22.75 11.7498 22.4142 11.7498 22V16.75H10.9998C9.56027 16.75 8.35774 16.2268 7.51888 15.3406C6.68607 14.4607 6.25445 13.2688 6.25982 11.9984V6.91C6.25982 5.44579 7.4556 4.25 8.91982 4.25H9.24981V2C9.24981 1.58579 9.5856 1.25 9.99981 1.25ZM8.91982 5.75C8.28403 5.75 7.75982 6.27421 7.75982 6.91V12.0034C7.75559 12.9323 8.06895 13.7397 8.60825 14.3094C9.14189 14.8732 9.93936 15.25 10.9998 15.25H13.9998C15.0601 15.25 15.8579 14.8733 16.3931 14.3089C16.9341 13.7385 17.2498 12.93 17.2498 12V6.91C17.2498 6.27421 16.7256 5.75 16.0898 5.75H8.91982Z" fill="#A1A3AA"/>
</svg>
